<svg width="124" height="124" viewBox="0 0 124 124" fill="none" xmlns="http://www.w3.org/2000/svg">
<path opacity="0.6" d="M99.4063 28.8299H97.3397L79.8763 11.3666C78.4813 9.97156 76.208 9.97156 74.7613 11.3666C73.3663 12.7616 73.3663 15.0349 74.7613 16.4816L87.1097 28.8299H36.8897L49.238 16.4816C50.633 15.0866 50.633 12.8132 49.238 11.3666C47.843 9.97156 45.5697 9.97156 44.123 11.3666L26.7113 28.8299H24.6447C19.9947 28.8299 10.333 28.8299 10.333 42.0566C10.333 47.0682 11.3663 50.3749 13.5363 52.5449C14.7763 53.8366 16.2747 54.5082 17.8763 54.8699C19.3747 55.2316 20.9763 55.2832 22.5263 55.2832H101.473C103.075 55.2832 104.573 55.1799 106.02 54.8699C110.36 53.8366 113.666 50.7366 113.666 42.0566C113.666 28.8299 104.005 28.8299 99.4063 28.8299Z" fill="#FF2459"/>
<path d="M101.525 55.2834H22.527C21.0286 55.2834 19.3753 55.2317 17.877 54.8184L24.387 94.55C25.8336 103.437 29.7086 113.667 46.9136 113.667H75.8986C93.3103 113.667 96.4103 104.935 98.2703 95.17L106.072 54.8184C104.625 55.18 103.075 55.2834 101.525 55.2834ZM62.0003 95.5834C49.9103 95.5834 40.042 85.715 40.042 73.625C40.042 71.5067 41.7986 69.75 43.917 69.75C46.0353 69.75 47.792 71.5067 47.792 73.625C47.792 81.4784 54.147 87.8334 62.0003 87.8334C69.8536 87.8334 76.2086 81.4784 76.2086 73.625C76.2086 71.5067 77.9653 69.75 80.0836 69.75C82.202 69.75 83.9586 71.5067 83.9586 73.625C83.9586 85.715 74.0903 95.5834 62.0003 95.5834Z" fill="#FF2459"/>
</svg>
