<svg width="24" height="24" viewBox="0 0 24 24" fill="none" xmlns="http://www.w3.org/2000/svg">
<path d="M20.1208 19.6859C20.1208 20.0047 19.9292 20.2344 19.6542 20.2344C19.3708 20.2344 19.1875 19.9906 19.1875 19.6859C19.1875 19.3812 19.3708 19.1375 19.6542 19.1375C19.9292 19.1375 20.1208 19.3812 20.1208 19.6859ZM7.17083 19.1375C6.875 19.1375 6.70417 19.3812 6.70417 19.6859C6.70417 19.9906 6.875 20.2344 7.17083 20.2344C7.44167 20.2344 7.625 20.0047 7.625 19.6859C7.62083 19.3812 7.44167 19.1375 7.17083 19.1375ZM12.0667 19.1234C11.8417 19.1234 11.7042 19.2875 11.6708 19.5312H12.4667C12.4292 19.2641 12.2833 19.1234 12.0667 19.1234ZM16.5583 19.1375C16.275 19.1375 16.1042 19.3812 16.1042 19.6859C16.1042 19.9906 16.275 20.2344 16.5583 20.2344C16.8417 20.2344 17.025 20.0047 17.025 19.6859C17.025 19.3812 16.8417 19.1375 16.5583 19.1375ZM20.9708 20.3609C20.9708 20.375 20.9833 20.3844 20.9833 20.4125C20.9833 20.4266 20.9708 20.4359 20.9708 20.4641C20.9583 20.4781 20.9583 20.4875 20.95 20.5016C20.9375 20.5156 20.9292 20.525 20.9042 20.525C20.8917 20.5391 20.8833 20.5391 20.8583 20.5391C20.8458 20.5391 20.8375 20.5391 20.8125 20.525C20.8 20.525 20.7917 20.5109 20.7792 20.5016C20.7667 20.4875 20.7583 20.4781 20.7583 20.4641C20.7458 20.4406 20.7458 20.4266 20.7458 20.4125C20.7458 20.3891 20.7458 20.375 20.7583 20.3609C20.7583 20.3375 20.7708 20.3234 20.7792 20.3094C20.7917 20.2953 20.8 20.2953 20.8125 20.2859C20.8333 20.2719 20.8458 20.2719 20.8583 20.2719C20.8792 20.2719 20.8917 20.2719 20.9042 20.2859C20.925 20.3 20.9375 20.3 20.95 20.3094C20.9625 20.3188 20.9583 20.3375 20.9708 20.3609ZM20.8792 20.4266C20.9 20.4266 20.9 20.4125 20.9125 20.4125C20.925 20.3984 20.925 20.3891 20.925 20.375C20.925 20.3609 20.925 20.3516 20.9125 20.3375C20.9 20.3375 20.8917 20.3234 20.8667 20.3234H20.8V20.4875H20.8333V20.4219H20.8458L20.8917 20.4875H20.925L20.8792 20.4266ZM24 4.25V20.75C24 21.9922 23.1042 23 22 23H2C0.895833 23 0 21.9922 0 20.75V4.25C0 3.00781 0.895833 2 2 2H22C23.1042 2 24 3.00781 24 4.25ZM2.66667 10.7938C2.66667 14.3797 5.25417 17.2859 8.4375 17.2859C9.57083 17.2859 10.6833 16.9016 11.625 16.2031C8.5875 13.4234 8.60833 8.17812 11.625 5.39844C10.6833 4.69531 9.57083 4.31563 8.4375 4.31563C5.25417 4.31094 2.66667 7.22188 2.66667 10.7938ZM12 15.8937C14.9375 13.3156 14.925 8.29063 12 5.69844C9.075 8.29063 9.0625 13.3203 12 15.8937ZM6.07083 19.4703C6.07083 19.0625 5.83333 18.7953 5.45833 18.7812C5.26667 18.7812 5.0625 18.8469 4.925 19.0859C4.825 18.8937 4.65417 18.7812 4.41667 18.7812C4.25833 18.7812 4.1 18.8469 3.975 19.0344V18.8281H3.63333V20.5484H3.975C3.975 19.6625 3.87083 19.1328 4.35 19.1328C4.775 19.1328 4.69167 19.6109 4.69167 20.5484H5.02083C5.02083 19.6906 4.91667 19.1328 5.39583 19.1328C5.82083 19.1328 5.7375 19.6016 5.7375 20.5484H6.07917V19.4703H6.07083ZM7.94167 18.8281H7.6125V19.0344C7.5 18.8797 7.34167 18.7812 7.125 18.7812C6.69583 18.7812 6.36667 19.1656 6.36667 19.6859C6.36667 20.2109 6.69583 20.5906 7.125 20.5906C7.34167 20.5906 7.5 20.5016 7.6125 20.3375V20.5531H7.94167V18.8281ZM9.62917 20.0281C9.62917 19.325 8.675 19.6437 8.675 19.3156C8.675 19.0484 9.17083 19.0906 9.44583 19.2641L9.58333 18.9594C9.19167 18.6734 8.325 18.6781 8.325 19.3438C8.325 20.0141 9.27917 19.7328 9.27917 20.0469C9.27917 20.3422 8.71667 20.3187 8.41667 20.0844L8.27083 20.3797C8.7375 20.7359 9.62917 20.6609 9.62917 20.0281ZM11.1042 20.4641L11.0125 20.1453C10.8542 20.2437 10.5042 20.3516 10.5042 19.9531V19.175H11.05V18.8281H10.5042V18.3031H10.1625V18.8281H9.84583V19.1703H10.1625V19.9531C10.1625 20.7781 10.8833 20.6281 11.1042 20.4641ZM11.6583 19.8359H12.8042C12.8042 19.0766 12.4958 18.7766 12.0792 18.7766C11.6375 18.7766 11.3208 19.1469 11.3208 19.6813C11.3208 20.6422 12.2625 20.8016 12.7292 20.3469L12.5708 20.0656C12.2458 20.3656 11.7542 20.3375 11.6583 19.8359ZM14.1208 18.8281C13.9292 18.7344 13.6375 18.7437 13.4875 19.0344V18.8281H13.1458V20.5484H13.4875V19.5781C13.4875 19.0344 13.8833 19.1047 14.0208 19.1844L14.1208 18.8281ZM14.5625 19.6859C14.5625 19.1516 15.0458 18.9781 15.425 19.2922L15.5833 18.9875C15.1 18.5609 14.2208 18.7953 14.2208 19.6906C14.2208 20.6187 15.1542 20.8062 15.5833 20.3937L15.425 20.0891C15.0417 20.3937 14.5625 20.2109 14.5625 19.6859ZM17.3417 18.8281H17V19.0344C16.6542 18.5187 15.7542 18.8094 15.7542 19.6859C15.7542 20.5859 16.6875 20.8438 17 20.3375V20.5531H17.3417V18.8281ZM18.7458 18.8281C18.6458 18.7719 18.2875 18.6922 18.1125 19.0344V18.8281H17.7833V20.5484H18.1125V19.5781C18.1125 19.0625 18.4875 19.0953 18.6458 19.1844L18.7458 18.8281ZM20.425 18.1297H20.0958V19.0344C19.7542 18.5234 18.85 18.7953 18.85 19.6859C18.85 20.5953 19.7875 20.8391 20.0958 20.3375V20.5531H20.425V18.1297ZM20.7417 14.6094V14.825H20.775V14.6094H20.8542V14.5719H20.6625V14.6094H20.7417ZM21.0167 20.4125C21.0167 20.3891 21.0167 20.3609 21.0042 20.3375C20.9917 20.3234 20.9833 20.3 20.9708 20.2859C20.9583 20.2719 20.9375 20.2625 20.925 20.2484C20.9042 20.2484 20.8792 20.2344 20.8583 20.2344C20.8458 20.2344 20.825 20.2484 20.8 20.2484C20.7792 20.2625 20.7667 20.2719 20.7542 20.2859C20.7333 20.3 20.7208 20.3234 20.7208 20.3375C20.7083 20.3609 20.7083 20.3891 20.7083 20.4125C20.7083 20.4266 20.7083 20.45 20.7208 20.4781C20.7208 20.4922 20.7333 20.5156 20.7542 20.5297C20.7667 20.5437 20.775 20.5531 20.8 20.5672C20.8208 20.5813 20.8458 20.5812 20.8583 20.5812C20.8792 20.5812 20.9042 20.5813 20.925 20.5672C20.9375 20.5531 20.9583 20.5437 20.9708 20.5297C20.9833 20.5156 20.9917 20.4922 21.0042 20.4781C21.0167 20.45 21.0167 20.4266 21.0167 20.4125ZM21.15 14.5672H21.0917L21.025 14.7313L20.9583 14.5672H20.9V14.8203H20.9333V14.6281L21 14.7922H21.0458L21.1042 14.6281V14.8203H21.15V14.5672ZM21.3333 10.7938C21.3333 7.22188 18.7458 4.31094 15.5625 4.31094C14.4292 4.31094 13.3167 4.69531 12.375 5.39375C15.3792 8.17344 15.425 13.4328 12.375 16.1984C13.3167 16.9016 14.4375 17.2812 15.5625 17.2812C18.7458 17.2859 21.3333 14.3797 21.3333 10.7938Z" fill="#AAAAAA"/>
</svg>
