<svg width="16" height="17" viewBox="0 0 16 17" fill="none" xmlns="http://www.w3.org/2000/svg">
<path d="M7.33301 1.8335H5.99967C2.66634 1.8335 1.33301 3.16683 1.33301 6.50016V10.5002C1.33301 13.8335 2.66634 15.1668 5.99967 15.1668H9.99967C13.333 15.1668 14.6663 13.8335 14.6663 10.5002V9.16683" stroke="black" stroke-width="1.5" stroke-linecap="round" stroke-linejoin="round"/>
<path d="M10.6933 2.51301L5.43992 7.76635C5.23992 7.96635 5.03992 8.35968 4.99992 8.64635L4.71325 10.653C4.60659 11.3797 5.11992 11.8863 5.84659 11.7863L7.85325 11.4997C8.13325 11.4597 8.52659 11.2597 8.73325 11.0597L13.9866 5.80635C14.8933 4.89968 15.3199 3.84635 13.9866 2.51301C12.6533 1.17968 11.5999 1.60635 10.6933 2.51301Z" stroke="black" stroke-width="1.5" stroke-miterlimit="10" stroke-linecap="round" stroke-linejoin="round"/>
<path d="M9.94043 3.2666C10.3871 4.85993 11.6338 6.1066 13.2338 6.55993" stroke="black" stroke-width="1.5" stroke-miterlimit="10" stroke-linecap="round" stroke-linejoin="round"/>
</svg>
