<svg width="124" height="124" viewBox="0 0 124 124" fill="none" xmlns="http://www.w3.org/2000/svg">
<path opacity="0.6" d="M61.9997 113.667C90.5344 113.667 113.666 90.5346 113.666 61.9999C113.666 33.4652 90.5344 10.3333 61.9997 10.3333C33.465 10.3333 10.333 33.4652 10.333 61.9999C10.333 90.5346 33.465 113.667 61.9997 113.667Z" fill="white"/>
<path d="M54.6634 80.4967C53.6301 80.4967 52.6484 80.0833 51.9251 79.36L37.3034 64.7383C35.8051 63.24 35.8051 60.76 37.3034 59.2617C38.8018 57.7633 41.2818 57.7633 42.7801 59.2617L54.6634 71.145L81.2201 44.5883C82.7184 43.09 85.1984 43.09 86.6968 44.5883C88.1951 46.0867 88.1951 48.5667 86.6968 50.065L57.4018 79.36C56.6784 80.0833 55.6968 80.4967 54.6634 80.4967Z" fill="white"/>
</svg>
