<svg width="124" height="124" viewBox="0 0 124 124" fill="none" xmlns="http://www.w3.org/2000/svg">
<path opacity="0.6" d="M62 113.667C90.5347 113.667 113.667 90.5346 113.667 61.9999C113.667 33.4652 90.5347 10.3333 62 10.3333C33.4653 10.3333 10.3333 33.4652 10.3333 61.9999C10.3333 90.5346 33.4653 113.667 62 113.667Z" fill="white"/>
<path d="M54.6633 80.4967C53.63 80.4967 52.6483 80.0833 51.925 79.36L37.3033 64.7383C35.805 63.24 35.805 60.76 37.3033 59.2617C38.8017 57.7633 41.2817 57.7633 42.78 59.2617L54.6633 71.145L81.22 44.5883C82.7183 43.09 85.1983 43.09 86.6967 44.5883C88.195 46.0867 88.195 48.5667 86.6967 50.065L57.4017 79.36C56.6783 80.0833 55.6967 80.4967 54.6633 80.4967Z" fill="white"/>
</svg>
