<svg width="124" height="124" viewBox="0 0 124 124" fill="none" xmlns="http://www.w3.org/2000/svg">
<path opacity="0.6" d="M112.427 82.2533L79.36 22.7333C74.9167 14.7249 68.7683 10.3333 62 10.3333C55.2317 10.3333 49.0833 14.7249 44.64 22.7333L11.5733 82.2533C7.38834 89.8483 6.92334 97.1332 10.2817 102.868C13.64 108.603 20.2533 111.755 28.9333 111.755H95.0667C103.747 111.755 110.36 108.603 113.718 102.868C117.077 97.1332 116.612 89.7966 112.427 82.2533Z" fill="white"/>
<path d="M62 76.2083C59.8817 76.2083 58.125 74.4517 58.125 72.3333V46.5C58.125 44.3817 59.8817 42.625 62 42.625C64.1183 42.625 65.875 44.3817 65.875 46.5V72.3333C65.875 74.4517 64.1183 76.2083 62 76.2083Z" fill="white"/>
<path d="M62 93.0001C61.69 93.0001 61.3283 92.9484 60.9666 92.8967C60.6566 92.8451 60.3466 92.7417 60.0366 92.5867C59.7266 92.4834 59.4166 92.3284 59.1066 92.1217C58.8483 91.9151 58.59 91.7084 58.3316 91.5017C57.4016 90.5201 56.8333 89.1767 56.8333 87.8334C56.8333 86.4901 57.4016 85.1467 58.3316 84.1651C58.59 83.9584 58.8483 83.7517 59.1066 83.5451C59.4166 83.3384 59.7266 83.1834 60.0366 83.0801C60.3466 82.9251 60.6566 82.8217 60.9666 82.7701C61.6383 82.6151 62.3616 82.6151 62.9816 82.7701C63.3433 82.8217 63.6533 82.9251 63.9633 83.0801C64.2733 83.1834 64.5833 83.3384 64.8933 83.5451C65.1516 83.7517 65.41 83.9584 65.6683 84.1651C66.5983 85.1467 67.1666 86.4901 67.1666 87.8334C67.1666 89.1767 66.5983 90.5201 65.6683 91.5017C65.41 91.7084 65.1516 91.9151 64.8933 92.1217C64.5833 92.3284 64.2733 92.4834 63.9633 92.5867C63.6533 92.7417 63.3433 92.8451 62.9816 92.8967C62.6716 92.9484 62.31 93.0001 62 93.0001Z" fill="white"/>
</svg>
