<svg width="54" height="54" viewBox="0 0 54 54" fill="none" xmlns="http://www.w3.org/2000/svg">
<rect x="0.75" y="0.75" width="52.5" height="52.5" rx="26.25" stroke="#9DB2CE" stroke-width="1.5"/>
<path d="M18.01 26.22V30.71C18.01 35.2 19.81 37 24.3 37H29.69C34.18 37 35.98 35.2 35.98 30.71V26.22" stroke="#9DB2CE" stroke-width="1.5" stroke-linecap="round" stroke-linejoin="round"/>
<path d="M27 27C28.83 27 30.18 25.51 30 23.68L29.34 17H24.67L24 23.68C23.82 25.51 25.17 27 27 27Z" stroke="#9DB2CE" stroke-width="1.5" stroke-linecap="round" stroke-linejoin="round"/>
<path d="M33.31 27C35.33 27 36.81 25.36 36.61 23.35L36.33 20.6C35.97 18 34.97 17 32.35 17H29.3L30 24.01C30.17 25.66 31.66 27 33.31 27Z" stroke="#9DB2CE" stroke-width="1.5" stroke-linecap="round" stroke-linejoin="round"/>
<path d="M20.64 27C22.29 27 23.78 25.66 23.94 24.01L24.16 21.8L24.64 17H21.59C18.97 17 17.97 18 17.61 20.6L17.34 23.35C17.14 25.36 18.62 27 20.64 27Z" stroke="#9DB2CE" stroke-width="1.5" stroke-linecap="round" stroke-linejoin="round"/>
<path d="M27 32C25.33 32 24.5 32.83 24.5 34.5V37H29.5V34.5C29.5 32.83 28.67 32 27 32Z" stroke="#9DB2CE" stroke-width="1.5" stroke-linecap="round" stroke-linejoin="round"/>
</svg>
