<svg width="20" height="23" viewBox="0 0 20 23" fill="none" xmlns="http://www.w3.org/2000/svg">
<path d="M19.5795 15.8798C19.4932 15.7771 19.4083 15.6744 19.3251 15.5753C18.1802 14.2092 17.4876 13.3847 17.4876 9.51728C17.4876 7.51505 17.002 5.87219 16.045 4.64004C15.3394 3.7298 14.3855 3.03929 13.1282 2.52897C13.112 2.52009 13.0976 2.50845 13.0855 2.49458C12.6333 1.0006 11.3958 0 10.0001 0C8.60443 0 7.36745 1.0006 6.91523 2.49304C6.90318 2.50642 6.88893 2.5177 6.87308 2.52641C3.9391 3.71799 2.51322 6.00413 2.51322 9.51574C2.51322 13.3847 1.82161 14.2092 0.675703 15.5738C0.59244 15.6729 0.507615 15.7735 0.42123 15.8782C0.198085 16.1437 0.0567046 16.4667 0.0138202 16.809C-0.0290643 17.1513 0.0283424 17.4985 0.179246 17.8096C0.50033 18.477 1.18465 18.8913 1.96576 18.8913H18.0402C18.8177 18.8913 19.4973 18.4775 19.8195 17.8132C19.971 17.502 20.029 17.1545 19.9864 16.8118C19.9439 16.4691 19.8027 16.1457 19.5795 15.8798ZM10.0001 23C10.7521 22.9994 11.4899 22.798 12.1353 22.4172C12.7807 22.0364 13.3095 21.4904 13.6658 20.8371C13.6826 20.8058 13.6909 20.7707 13.6899 20.7353C13.6888 20.6999 13.6786 20.6653 13.66 20.635C13.6415 20.6047 13.6153 20.5796 13.584 20.5622C13.5528 20.5448 13.5175 20.5357 13.4816 20.5357H6.51973C6.48379 20.5356 6.44842 20.5447 6.41708 20.562C6.38573 20.5794 6.35949 20.6045 6.34088 20.6348C6.32228 20.6651 6.31196 20.6997 6.31093 20.7352C6.3099 20.7706 6.31819 20.8057 6.33499 20.8371C6.69122 21.4903 7.22 22.0363 7.86527 22.4171C8.51053 22.7979 9.24823 22.9993 10.0001 23Z" fill="#9DB2CE"/>
</svg>
