<svg width="24" height="24" viewBox="0 0 24 24" fill="none" xmlns="http://www.w3.org/2000/svg">
<g clip-path="url(#clip0_147_364)">
<path d="M11.3625 13.7109C11.6156 13.4578 12.0516 13.4578 12.3047 13.7109L15.9141 17.3203C16.5797 17.9859 17.4656 18.3516 18.4031 18.3516H19.1109L14.5594 22.9031C13.1391 24.2859 10.8328 24.2859 9.4125 22.9031L4.84219 18.3375H5.27813C6.21563 18.3375 7.10156 17.9719 7.76719 17.3063L11.3625 13.7109ZM12.3047 10.2609C12.0047 10.5187 11.6203 10.5234 11.3625 10.2609L7.76719 6.66562C7.10156 5.95781 6.21563 5.63437 5.27813 5.63437H4.84219L9.40781 1.06875C10.8328 -0.35625 13.1391 -0.35625 14.5594 1.06875L19.1156 5.62031H18.4031C17.4656 5.62031 16.5797 5.98594 15.9141 6.65156L12.3047 10.2609ZM5.27813 6.68906C5.925 6.68906 6.52031 6.95156 7.01719 7.41094L10.6125 11.0063C10.95 11.3016 11.3906 11.5125 11.8359 11.5125C12.2766 11.5125 12.7172 11.3016 13.0547 11.0063L16.6641 7.39688C17.1234 6.94219 17.7563 6.67969 18.4031 6.67969H20.1703L22.9031 9.4125C24.3234 10.8328 24.3234 13.1391 22.9031 14.5594L20.1703 17.2922H18.4031C17.7563 17.2922 17.1234 17.0297 16.6641 16.5703L13.0547 12.9609C12.4031 12.3094 11.2641 12.3094 10.6125 12.9656L7.01719 16.5563C6.52031 17.0156 5.925 17.2781 5.27813 17.2781H3.7875L1.06875 14.5594C-0.35625 13.1391 -0.35625 10.8328 1.06875 9.4125L3.7875 6.68906H5.27813Z" fill="black"/>
</g>
<defs>
<clipPath id="clip0_147_364">
<rect width="24" height="24" fill="white"/>
</clipPath>
</defs>
</svg>
