<svg width="124" height="124" viewBox="0 0 124 124" fill="none" xmlns="http://www.w3.org/2000/svg">
<path d="M100.75 41.3333C107.883 41.3333 113.666 35.5503 113.666 28.4167C113.666 21.283 107.883 15.5 100.75 15.5C93.616 15.5 87.833 21.283 87.833 28.4167C87.833 35.5503 93.616 41.3333 100.75 41.3333Z" fill="white"/>
<path d="M100.75 41.3333C107.883 41.3333 113.666 35.5503 113.666 28.4167C113.666 21.283 107.883 15.5 100.75 15.5C93.616 15.5 87.833 21.283 87.833 28.4167C87.833 35.5503 93.616 41.3333 100.75 41.3333Z" fill="white"/>
<path opacity="0.6" d="M107.053 48.1017C110.308 47.0683 113.666 49.6 113.666 53.0617V80.135C113.666 98.2183 103.333 105.968 87.833 105.968H36.1663C20.6663 105.968 10.333 98.2183 10.333 80.135V43.9683C10.333 25.885 20.6663 18.135 36.1663 18.135H75.4846C78.8429 18.135 81.1163 21.235 80.4963 24.49C79.8763 27.5384 79.9797 30.7933 80.9097 34.1517C82.8214 41.075 88.453 46.6033 95.3763 48.4117C99.458 49.445 103.436 49.2383 107.053 48.1017Z" fill="white"/>
<path d="M61.9997 66.495C57.6597 66.495 53.268 65.1517 49.9097 62.4134L33.738 49.4967C32.0847 48.1534 31.7747 45.725 33.118 44.0717C34.4614 42.4184 36.8896 42.1084 38.543 43.4517L54.7146 56.3684C58.6413 59.5201 65.3063 59.5201 69.233 56.3684L75.3296 51.5117C76.9829 50.1684 79.463 50.4267 80.7547 52.1317C82.098 53.785 81.8397 56.265 80.1347 57.5567L74.0379 62.4134C70.7313 65.1517 66.3397 66.495 61.9997 66.495Z" fill="white"/>
</svg>
